<svg width="800" height="800" xmlns="http://www.w3.org/2000/svg">
  <rect width="100%" height="100%" fill="#f8fafc" />

  <path d="M 110 100 L 210 100 M 230 100 L 330 100 M 350 100 L 450 100 M 470 100 L 570 100 M 590 100 L 690 100
           M 110 220 L 210 220 M 230 220 L 330 220 M 350 220 L 450 220 M 470 220 L 570 220 M 590 220 L 690 220
           M 110 340 L 210 340 M 230 340 L 330 340 M 350 340 L 450 340 M 470 340 L 570 340 M 590 340 L 690 340
           M 110 460 L 210 460 M 230 460 L 330 460 M 350 460 L 450 460 M 470 460 L 570 460 M 590 460 L 690 460
           M 110 580 L 210 580 M 230 580 L 330 580 M 350 580 L 450 580 M 470 580 L 570 580 M 590 580 L 690 580
           M 110 700 L 210 700 M 230 700 L 330 700 M 350 700 L 450 700 M 470 700 L 570 700 M 590 700 L 690 700" 
        stroke="#94a3b8" stroke-width="2" fill="none" />

  <path d="M 100 110 L 100 210 M 100 230 L 100 330 M 100 350 L 100 450 M 100 470 L 100 570 M 100 590 L 100 690
           M 220 110 L 220 210 M 220 230 L 220 330 M 220 350 L 220 450 M 220 470 L 220 570 M 220 590 L 220 690
           M 340 110 L 340 210 M 340 230 L 340 330 M 340 350 L 340 450 M 340 470 L 340 570 M 340 590 L 340 690
           M 460 110 L 460 210 M 460 230 L 460 330 M 460 350 L 460 450 M 460 470 L 460 570 M 460 590 L 460 690
           M 580 110 L 580 210 M 580 230 L 580 330 M 580 350 L 580 450 M 580 470 L 580 570 M 580 590 L 580 690
           M 700 110 L 700 210 M 700 230 L 700 330 M 700 350 L 700 450 M 700 470 L 700 570 M 700 590 L 700 690" 
        stroke="#94a3b8" stroke-width="2" fill="none" />

  <!-- 对角线（虚线，两端留出间隙） -->
  <g stroke="#cbd5e1" stroke-width="1.5" stroke-dasharray="4,4" fill="none">
    <!-- 左上到右下方向 -->
    <path d="M 110 110 L 210 210 M 230 110 L 330 210 M 350 110 L 450 210 M 470 110 L 570 210 M 590 110 L 690 210
             M 110 230 L 210 330 M 230 230 L 330 330 M 350 230 L 450 330 M 470 230 L 570 330 M 590 230 L 690 330
             M 110 350 L 210 450 M 230 350 L 330 450 M 350 350 L 450 450 M 470 350 L 570 450 M 590 350 L 690 450
             M 110 470 L 210 570 M 230 470 L 330 570 M 350 470 L 450 570 M 470 470 L 570 570 M 590 470 L 690 570
             M 110 590 L 210 690 M 230 590 L 330 690 M 350 590 L 450 690 M 470 590 L 570 690 M 590 590 L 690 690" />
    
    <!-- 右上到左下方向 -->
    <path d="M 210 110 L 110 210 M 330 110 L 230 210 M 450 110 L 350 210 M 570 110 L 470 210 M 690 110 L 590 210
             M 210 230 L 110 330 M 330 230 L 230 330 M 450 230 L 350 330 M 570 230 L 470 330 M 690 230 L 590 330
             M 210 350 L 110 450 M 330 350 L 230 450 M 450 350 L 350 450 M 570 350 L 470 450 M 690 350 L 590 450
             M 210 470 L 110 570 M 330 470 L 230 570 M 450 470 L 350 570 M 570 470 L 470 570 M 690 470 L 590 570
             M 210 590 L 110 690 M 330 590 L 230 690 M 450 590 L 350 690 M 570 590 L 470 690 M 690 590 L 590 690" />
  </g>

  <!-- 大阵点 -->
  <g fill="#1e293b">
    <circle cx="100" cy="100" r="7"/><circle cx="220" cy="100" r="7"/><circle cx="340" cy="100" r="7"/>
    <circle cx="460" cy="100" r="7"/><circle cx="580" cy="100" r="7"/><circle cx="700" cy="100" r="7"/>
    
    <circle cx="100" cy="220" r="7"/><circle cx="220" cy="220" r="7"/><circle cx="340" cy="220" r="7"/>
    <circle cx="460" cy="220" r="7"/><circle cx="580" cy="220" r="7"/><circle cx="700" cy="220" r="7"/>
    
    <circle cx="100" cy="340" r="7"/><circle cx="220" cy="340" r="7"/><circle cx="340" cy="340" r="7"/>
    <circle cx="460" cy="340" r="7"/><circle cx="580" cy="340" r="7"/><circle cx="700" cy="340" r="7"/>
    
    <circle cx="100" cy="460" r="7"/><circle cx="220" cy="460" r="7"/><circle cx="340" cy="460" r="7"/>
    <circle cx="460" cy="460" r="7"/><circle cx="580" cy="460" r="7"/><circle cx="700" cy="460" r="7"/>
    
    <circle cx="100" cy="580" r="7"/><circle cx="220" cy="580" r="7"/><circle cx="340" cy="580" r="7"/>
    <circle cx="460" cy="580" r="7"/><circle cx="580" cy="580" r="7"/><circle cx="700" cy="580" r="7"/>
    
    <circle cx="100" cy="700" r="7"/><circle cx="220" cy="700" r="7"/><circle cx="340" cy="700" r="7"/>
    <circle cx="460" cy="700" r="7"/><circle cx="580" cy="700" r="7"/><circle cx="700" cy="700" r="7"/>
  </g>
</svg>