<svg fill="none" viewBox="0 0 28 44" xmlns="http://www.w3.org/2000/svg" id="html">
    <path d="m3.46223 37.7629-2.42707-27.2226h26.66944l-2.4295 27.2184-10.9215 3.0277z"
        fill="#e44d26"></path>
    <path d="m14.3672 38.4725 8.8249-2.4467 2.0766-23.2594h-10.9015z" fill="#f16529"></path>
    <path
        d="m14.368 22.8634h-4.41796l-.30509-3.4189h4.72305v-3.3388h-.0114-8.36051l.07991.8958.8206 9.2006h7.4714z"
        fill="#ebebeb"></path>
    <path
        d="m14.3693 31.5342-.0147.0039-3.7183-1.004-.2378-2.6628h-1.80676-1.54486l.46781 5.2423 6.83921 1.8987.0154-.0045z"
        fill="#ebebeb"></path>
    <g fill="#000">
        <path
            d="m3.51562 3.14282h1.69676v1.67634h1.5521v-1.67634h1.69683v5.07642h-1.69683v-1.69987h-1.5521v1.69987h-1.69668z"></path>
        <path d="m10.6929 4.82625h-1.49368v-1.68343h4.68498v1.68343h-1.4945v3.39299h-1.6968z"></path>
        <path
            d="m14.6289 3.14282h1.7691l1.0884 1.78368 1.0871-1.78368h1.77v5.07642h-1.6899v-2.5161l-1.1672 1.80496h-.0293l-1.1681-1.80496v2.5161h-1.6601z"></path>
        <path d="m21.1875 3.14282h1.6971v3.39843h2.3863v1.67784h-4.0834z"></path>
    </g>
    <path
        d="m14.3555 22.8633v3.3387h4.1112l-.3876 4.3302-3.7236 1.0051v3.4735l6.8445-1.897.0502-.5641.7847-8.7899.0815-.8965h-.8998z"
        fill="#fff"></path>
    <path d="m14.3555 16.1057v2.0737 1.257.0081h8.0539.0106l.067-.7505.1522-1.6925.0799-.8958z"
        fill="#fff"></path>
</svg>