<svg fill="none" viewBox="0 0 44 44" xmlns="http://www.w3.org/2000/svg" id="java-white">
    <path
        d="m15.6402 34.0137s-1.7014.976 1.2108 1.3063c3.528.3971 5.3311.3401 9.219-.3858 0 0 1.0221.6323 2.4496 1.1799-8.7156 3.685-19.72507-.2134-12.8794-2.1004z"
        fill="#fff"></path>
    <path
        d="m14.5759 29.2051s-1.9083 1.3934 1.0061 1.6908c3.7687.3836 6.7449.415 11.895-.5634 0 0 .7123.7125 1.8324 1.1021-10.5377 3.0398-22.27479.2397-14.7335-2.2295z"
        fill="#fff"></path>
    <path
        d="m23.5557 21.048c2.1475 2.4391-.5643 4.634-.5643 4.634s5.453-2.777 2.9487-6.2544c-2.3389-3.243-4.1326-4.8543 5.5775-10.40978 0 0-15.2416 3.75528-7.9619 12.03018z"
        fill="#e76f00"></path>
    <g fill="#fff">
        <path
            d="m35.0819 37.5705s1.259 1.0234-1.3866 1.8151c-5.0308 1.5034-20.9386 1.9574-25.35772.0599-1.58856-.6818 1.39044-1.6279 2.32752-1.8264.9773-.2091 1.5358-.1701 1.5358-.1701-1.7667-1.2277-11.418882 2.4107-4.90288 3.4527 17.77008 2.8429 32.39318-1.2802 27.78388-3.3312z"></path>
        <path
            d="m16.4584 24.2227s-8.09171 1.896-2.8655 2.5845c2.2067.2915 6.6057.2255 10.7032-.1131 3.3487-.2787 6.7112-.8712 6.7112-.8712s-1.1808.4988-2.0351 1.0743c-8.217 2.1319-24.09067 1.1401-19.52083-1.0406 3.86473-1.8429 7.00703-1.6339 7.00703-1.6339z"></path>
        <path
            d="m30.9765 32.2269c8.3529-4.282 4.4909-8.3969 1.7952-7.8425-.6607.1356-.9553.2532-.9553.2532s.2452-.3791.7137-.5431c5.3329-1.8496 9.4343 5.4551-1.7215 8.3482 0 .0001.1292-.1139.1679-.2158z"></path>
    </g>
    <path
        d="m25.94.0471191s4.626 4.5651509-4.3875 11.5850809c-7.228 5.6311-1.6482 8.8419-.003 12.5103-4.2191-3.7553-7.3154-7.0611-5.2382-10.1378 3.0489-4.51642 11.4952-6.70612 9.6287-13.9575809z"
        fill="#e76f00"></path>
    <path
        d="m17.2787 43.8302c8.0178.5063 20.3301-.2809 20.6217-4.0236 0 0-.5605 1.4188-6.6263 2.5456-6.8434 1.2705-15.2837 1.1221-20.2897.3079.0001-.0001 1.0248.8367 6.2943 1.1701z"
        fill="#fff"></path>
</svg>