<svg fill="none" viewBox="0 0 44 44" xmlns="http://www.w3.org/2000/svg" id="python">
    <g clip-rule="evenodd" fill-rule="evenodd">
        <path
            d="m17.0471 9.90002c-.9064 0-1.6423-.7381-1.6423-1.65s.7359-1.65 1.6423-1.65 1.6423.7381 1.6423 1.65-.7359 1.65-1.6423 1.65zm13.6268-1.65c-.1892-2.0273-1.7941-3.6399-3.8115-3.8302v-.0198h-9.3775c-2.3386 0-4.2328 1.9041-4.2328 4.2537v3.44628h1.7545 2.4783 2.4783 2.0471v1.1363h-13.09991v.0088c-.0847-.0055-.1705-.0088-.2552-.0088-2.3386 0-4.2339 1.9052-4.2339 4.2537v8.6416c-.0121.1364-.0209.275-.0209.4147 0 2.3496 1.8953 4.2537 4.2328 4.2537h3.48701v-3.7125c0-3.113 2.5135-5.6375 5.6111-5.6375.0517 0 .1034.0022.1551.0033v-.0033h8.1367v-.0231c.1441.0154.2904.0231.4378.0231 2.1527 0 3.927-1.6148 4.1965-3.7037h.0363v-9.49628z"
            fill="#40a0cf"></path>
        <path
            d="m26.9532 34.1001c.9064 0 1.6412.7392 1.6412 1.65s-.7348 1.65-1.6412 1.65-1.6423-.7392-1.6423-1.65.7359-1.65 1.6423-1.65zm-13.6268 1.65c.1892 2.0273 1.7941 3.6399 3.8115 3.8302v.0198h9.3775c2.3386 0 4.2328-1.9041 4.2328-4.2526v-3.4474h-1.7545-2.4783-2.4783-2.0471v-1.1363h13.0999v-.0088c.0847.0055.1705.0088.2563.0088 2.3375 0 4.2328-1.9052 4.2328-4.2537v-8.6416c.0121-.1364.0209-.275.0209-.4147 0-2.3496-1.8953-4.2537-4.2328-4.2537h-3.487v3.7125c0 3.1141-2.5135 5.6375-5.6111 5.6375-.0517 0-.1034-.0022-.1551-.0033v.0033h-8.1367v.0231c-.1441-.0154-.2904-.0231-.4378-.0231-2.1527 0-3.9281 1.6148-4.1965 3.7026h-.0363v9.4974z"
            fill="#ffc900"></path>
    </g>
</svg>